<svg width="27" height="16" viewBox="0 0 27 16" fill="none" xmlns="http://www.w3.org/2000/svg">
<path d="M2.78348 10.2781H5.48748C5.60343 10.2769 5.71413 10.2296 5.79522 10.1467C5.8763 10.0638 5.92114 9.95209 5.91988 9.83614C5.91988 9.59251 5.7263 9.3951 5.48748 9.3951H2.78445C2.54375 9.39827 2.3509 9.59543 2.35302 9.83614C2.35302 10.0807 2.54563 10.2791 2.78445 10.2791L2.78348 10.2781ZM1.43245 7.6271H6.83948C7.08056 7.62446 7.27399 7.42715 7.27187 7.18607C7.27187 6.94147 7.0783 6.7431 6.83948 6.7431H1.43245C1.31633 6.74437 1.20548 6.79179 1.12437 6.87489C1.04325 6.95799 0.998534 7.06995 1.00004 7.18607C1.00004 7.4297 1.19363 7.6271 1.43245 7.6271ZM13.2875 12.3533C13.2875 13.8806 12.0867 15.1218 10.6027 15.1218C9.11882 15.1218 7.918 13.8806 7.918 12.3524C7.918 10.8251 9.11882 9.58384 10.6027 9.58384C12.0867 9.58384 13.2875 10.8251 13.2875 12.3524V12.3533ZM12.4237 12.3533C12.4237 11.3104 11.6081 10.4678 10.6027 10.4678C9.59741 10.4678 8.78178 11.3104 8.78178 12.3524C8.78178 13.3943 9.59741 14.2378 10.6027 14.2378C11.6081 14.2378 12.4237 13.3943 12.4237 12.3524V12.3533ZM24.845 12.7424C24.845 14.2706 23.6441 15.5118 22.1602 15.5118C20.6773 15.5118 19.4755 14.2706 19.4755 12.7424C19.4755 11.2151 20.6763 9.97384 22.1602 9.97384C23.6441 9.97384 24.845 11.2151 24.845 12.7424ZM23.9821 12.7424C23.9821 11.7014 23.1656 10.8578 22.1602 10.8578C21.1549 10.8578 20.3383 11.7014 20.3383 12.7424C20.3383 13.7843 21.1549 14.6278 22.1602 14.6278C23.1656 14.6278 23.9821 13.7843 23.9821 12.7424Z" fill="black" stroke="black" stroke-width="0.1"/>
<path d="M21.3984 2.10741C21.009 1.42618 20.2861 1.00414 19.5014 1H6.15089C5.67711 1 5.26111 1.30815 5.10415 1.75881C5.02356 1.98684 5.1399 2.23747 5.36607 2.32311C5.59044 2.40496 5.83792 2.28459 5.91785 2.05444C5.95141 1.95387 6.04488 1.88551 6.15089 1.884H19.5014C19.9742 1.884 20.4133 2.14015 20.657 2.56L23.125 6.78741C23.17 6.86512 23.238 6.92701 23.3196 6.96459L24.8199 7.64637C25.3928 7.94296 25.7674 8.56793 25.7674 9.25452V11.8805C25.7674 12.0394 25.6422 12.1684 25.493 12.1684H24.3971C24.156 12.1716 23.963 12.3694 23.9657 12.6104C23.9657 12.8541 24.1583 13.0524 24.3971 13.0524H25.493C26.1208 13.0524 26.6303 12.5257 26.6303 11.8805V9.25356C26.6368 8.24565 26.0813 7.31804 25.1896 6.84807L23.7953 6.21444L21.3984 2.10837V2.10741Z" fill="black" stroke="black" stroke-width="0.1"/>
<path d="M8.19135 12.3013H6.18261C6.07082 12.2989 5.9724 12.227 5.93609 12.1213C5.89751 12.0125 5.8167 11.9239 5.71193 11.8755C5.60717 11.8271 5.48732 11.823 5.3795 11.8641C5.15547 11.954 5.04395 12.2061 5.12817 12.4323C5.29187 12.8801 5.7098 13.1844 6.18261 13.1844H8.19135C8.43243 13.1812 8.62543 12.9834 8.62279 12.7424C8.62279 12.4987 8.43017 12.3013 8.19135 12.3013Z" fill="black" stroke="black" stroke-width="0.1"/>
<path d="M17.1847 1.5749C17.1847 1.33127 16.9921 1.1329 16.7532 1.1329C16.6371 1.13417 16.5263 1.18159 16.4452 1.26469C16.3641 1.34779 16.3193 1.45975 16.3208 1.57587V6.69305C16.3208 6.93764 16.5144 7.13602 16.7532 7.13602H23.5132C23.7543 7.13232 23.9469 6.93414 23.9437 6.69305C23.9437 6.44942 23.7511 6.25202 23.5123 6.25202H17.1847V1.5749Z" fill="black" stroke="black" stroke-width="0.1"/>
<path d="M14.6692 13.3712H17.6015C17.7174 13.3699 17.8281 13.3226 17.9092 13.2397C17.9903 13.1568 18.0351 13.0451 18.0339 12.9292C18.0339 12.6856 17.8403 12.4872 17.6015 12.4872H14.6692C14.5533 12.4887 14.4427 12.5362 14.3618 12.6193C14.2809 12.7024 14.2363 12.8142 14.2378 12.9301C14.2378 13.1738 14.4304 13.3712 14.6692 13.3712Z" fill="black" stroke="black" stroke-width="0.1"/>
<path d="M4.13653 4.97705H8.64319C8.75914 4.97553 8.86974 4.928 8.95065 4.84492C9.03156 4.76185 9.07614 4.65004 9.07464 4.53409C9.07464 4.29046 8.88104 4.09305 8.64223 4.09305H4.13556C3.89448 4.09622 3.70148 4.29396 3.70413 4.53505C3.70413 4.77868 3.89771 4.97608 4.13653 4.97608V4.97705Z" fill="black" stroke="black" stroke-width="0.1"/>
</svg>
