<svg width="80" height="80" viewBox="0 0 80 80" fill="none" xmlns="http://www.w3.org/2000/svg">
<path opacity="0.2" d="M40 80C17.9086 80 0 62.0914 0 40C0 17.9086 17.9086 0 40 0C62.0914 0 80 17.9086 80 40C80 62.0914 62.0914 80 40 80Z" fill="url(#paint0_radial)"/>
<path d="M19.3142 43.3814H24.339C24.5545 43.3791 24.7602 43.2905 24.9109 43.1352C25.0616 42.9799 25.1449 42.7706 25.1426 42.5534C25.1426 42.097 24.7828 41.7272 24.339 41.7272H19.316C18.8687 41.7331 18.5104 42.1025 18.5143 42.5534C18.5143 43.0115 18.8722 43.3832 19.316 43.3832L19.3142 43.3814ZM16.8036 38.415H26.8514C27.2994 38.4101 27.6589 38.0405 27.655 37.5888C27.655 37.1306 27.2952 36.759 26.8514 36.759H16.8036C16.5878 36.7614 16.3818 36.8502 16.2311 37.0059C16.0804 37.1615 15.9973 37.3713 16.0001 37.5888C16.0001 38.0452 16.3598 38.415 16.8036 38.415ZM38.8338 47.269C38.8338 50.1302 36.6023 52.4554 33.8446 52.4554C31.0871 52.4554 28.8557 50.1302 28.8557 47.2673C28.8557 44.4061 31.0871 42.0807 33.8446 42.0807C36.6023 42.0807 38.8338 44.4061 38.8338 47.2673V47.269ZM37.2286 47.269C37.2286 45.3152 35.7129 43.7367 33.8446 43.7367C31.9765 43.7367 30.4608 45.3152 30.4608 47.2673C30.4608 49.2192 31.9765 50.7994 33.8446 50.7994C35.7129 50.7994 37.2286 49.2192 37.2286 47.2673V47.269ZM60.311 47.9979C60.311 50.8608 58.0793 53.186 55.3218 53.186C52.5662 53.186 50.3329 50.8608 50.3329 47.9979C50.3329 45.1367 52.5643 42.8114 55.3218 42.8114C58.0793 42.8114 60.311 45.1367 60.311 47.9979ZM58.7074 47.9979C58.7074 46.0477 57.1901 44.4673 55.3218 44.4673C53.4537 44.4673 51.9362 46.0477 51.9362 47.9979C51.9362 49.9498 53.4537 51.53 55.3218 51.53C57.1901 51.53 58.7074 49.9498 58.7074 47.9979Z" fill="#4A82D8" stroke="#4A82D8" stroke-width="0.1"/>
<path d="M53.9063 28.0746C53.1826 26.7984 51.8393 26.0078 50.3811 26H25.5719C24.6915 26 23.9185 26.5773 23.6268 27.4215C23.477 27.8487 23.6932 28.3182 24.1135 28.4787C24.5305 28.632 24.9904 28.4065 25.1389 27.9754C25.2013 27.787 25.375 27.6589 25.5719 27.6561H50.3811C51.2597 27.6561 52.0757 28.1359 52.5285 28.9225L57.1148 36.842C57.1984 36.9876 57.3248 37.1035 57.4764 37.1739L60.2644 38.4511C61.329 39.0068 62.0251 40.1776 62.0251 41.4638V46.3833C62.0251 46.6809 61.7925 46.9226 61.5152 46.9226H59.4787C59.0307 46.9286 58.672 47.2992 58.6771 47.7506C58.6771 48.2072 59.035 48.5787 59.4787 48.5787H61.5152C62.6819 48.5787 63.6287 47.592 63.6287 46.3833V41.462C63.6407 39.5738 62.6085 37.8361 60.9514 36.9556L58.3604 35.7686L53.9063 28.0764V28.0746Z" fill="#4A82D8" stroke="#4A82D8" stroke-width="0.1"/>
<path d="M29.3636 47.1716H25.6308C25.423 47.1671 25.2401 47.0324 25.1727 46.8344C25.101 46.6305 24.9508 46.4646 24.7561 46.3739C24.5614 46.2832 24.3387 46.2755 24.1383 46.3525C23.722 46.521 23.5148 46.9932 23.6713 47.417C23.9755 48.2559 24.7521 48.826 25.6308 48.826H29.3636C29.8116 48.82 30.1702 48.4494 30.1653 47.9979C30.1653 47.5414 29.8074 47.1716 29.3636 47.1716Z" fill="#4A82D8" stroke="#4A82D8" stroke-width="0.1"/>
<path d="M46.0759 27.077C46.0759 26.6206 45.718 26.249 45.2741 26.249C45.0583 26.2513 44.8524 26.3402 44.7017 26.4959C44.551 26.6515 44.4677 26.8613 44.4705 27.0788V36.6652C44.4705 37.1234 44.8303 37.4951 45.2741 37.4951H57.8361C58.2841 37.4881 58.642 37.1169 58.6361 36.6652C58.6361 36.2088 58.2782 35.839 57.8344 35.839H46.0759V27.077Z" fill="#4A82D8" stroke="#4A82D8" stroke-width="0.1"/>
<path d="M41.4013 49.1758H46.8504C47.0658 49.1734 47.2715 49.0848 47.4222 48.9295C47.5729 48.7742 47.6562 48.5649 47.6539 48.3478C47.6539 47.8915 47.2942 47.5198 46.8504 47.5198H41.4013C41.186 47.5226 40.9804 47.6116 40.8301 47.7672C40.6798 47.9229 40.5969 48.1324 40.5997 48.3495C40.5997 48.806 40.9576 49.1758 41.4013 49.1758Z" fill="#4A82D8" stroke="#4A82D8" stroke-width="0.1"/>
<path d="M21.8285 33.4506H30.2032C30.4186 33.4477 30.6242 33.3587 30.7745 33.203C30.9249 33.0474 31.0077 32.8379 31.0049 32.6207C31.0049 32.1643 30.6452 31.7945 30.2014 31.7945H21.8267C21.3787 31.8004 21.02 32.1709 21.025 32.6225C21.025 33.0789 21.3847 33.4487 21.8285 33.4487V33.4506Z" fill="#4A82D8" stroke="#4A82D8" stroke-width="0.1"/>
<defs>
<radialGradient id="paint0_radial" cx="0" cy="0" r="1" gradientUnits="userSpaceOnUse" gradientTransform="translate(40 40) rotate(180) scale(40)">
<stop stop-color="#4A82D8" stop-opacity="0"/>
<stop offset="1" stop-color="#4A82D8"/>
</radialGradient>
</defs>
</svg>
