<svg width="161" height="160" viewBox="0 0 161 160" fill="none" xmlns="http://www.w3.org/2000/svg">
<path d="M39.0001 112.5C38.0001 110.5 41.0001 91.5 42.0001 87L47 78H54.5C58 74.6667 65 67.5 65 65.5C65 63.5 71 57.3333 74 54.5L100.5 45L115.5 52L128.5 65.5L135.5 85.5L139 110.5L128.5 133.5L110 141L100.5 148L91 149.5L80 148L72 143.5L65 139.5C60.1667 136.667 50.2 130.8 49 130C47.5 129 40.0001 114.5 39.0001 112.5Z" fill="white"/>
<path d="M140.163 126.591C138.898 133.218 135.877 140.237 128.814 141.921C123.339 143.226 116.173 142.854 111.75 142.421C110.602 143.376 109.42 144.267 108.198 145.071C102.371 148.906 95.7819 150.933 89.1416 150.933C82.4714 150.933 75.8555 148.888 70.008 145.019C68.806 144.225 67.6433 143.345 66.513 142.403C62.1061 142.842 54.822 143.244 49.2754 141.919C42.2123 140.235 39.193 133.217 37.9259 126.59C34.2168 107.171 36.2739 90.1482 40.2798 74.5195C44.2857 58.8921 50.9395 41.8693 66.8667 33.3667C74.5722 29.2528 82.4918 27.9941 88.9789 27.9271C89.0006 27.9271 89.0237 27.9285 89.0467 27.9285C89.067 27.9285 89.0901 27.9271 89.1131 27.9271L89.1145 27.9298C95.6003 27.9968 103.52 29.2569 111.224 33.3695C127.153 41.872 133.805 58.8948 137.811 74.5222C141.815 90.1509 143.873 107.172 140.163 126.591ZM122.51 120.582C122.573 120.418 122.641 120.258 122.702 120.092C123.384 118.265 123.975 116.369 124.472 114.422C124.678 113.679 124.866 112.921 125.056 112.165C125.524 112.31 126.041 112.396 126.623 112.396C127.562 112.396 128.334 111.941 128.963 111.275C130.536 105.4 131.032 98.8325 129.632 91.7049C129.18 91.5915 128.683 91.5272 128.124 91.5272C128.062 91.5272 128.002 91.5341 127.94 91.5368C127.991 90.1865 128.024 88.8279 128.024 87.4557C128.024 86.8366 128.012 86.2229 128.002 85.6079C127.634 84.524 127.22 83.4279 126.76 82.3222C126.144 96.602 123.477 98.8776 119.579 102.189C123.477 97.2225 123.517 79.5286 110.14 69.2862C100.509 61.9112 102.491 59.7682 99.6359 55.683C96.4798 59.7695 77.5779 61.9112 67.9482 69.2862C54.5727 79.5286 54.612 97.2225 58.5122 102.189C54.6134 98.8776 51.9464 96.602 51.3298 82.3222C50.9476 83.2393 50.6061 84.1468 50.2877 85.0489C50.2701 85.847 50.2579 86.6507 50.2579 87.4557C50.2579 88.832 50.2904 90.1933 50.3432 91.5477C50.2172 91.5409 50.0925 91.5286 49.9638 91.5286C49.4068 91.5286 48.9095 91.5928 48.4555 91.7063C47.0556 98.8339 47.553 105.401 49.1263 111.277C49.7564 111.942 50.5275 112.397 51.4667 112.397C52.1212 112.397 52.7012 112.296 53.2135 112.113C53.4045 112.879 53.5956 113.644 53.803 114.396C54.3071 116.376 54.9088 118.3 55.604 120.158C55.6623 120.312 55.7259 120.463 55.7842 120.616C59.2914 129.725 65.0169 137.192 72.0679 141.855C77.1795 145.238 82.9864 147.147 89.1416 147.147C95.2696 147.147 101.051 145.254 106.145 141.9C113.238 137.234 118.993 129.735 122.51 120.582ZM90.2596 113.608C90.9073 113.412 91.4182 112.824 91.7773 111.86C92.3655 110.284 92.5118 107.692 91.8261 106.582C90.8436 104.999 88.6944 104.931 86.7185 105.073C86.293 105.103 85.9732 105.476 86.003 105.905C86.0342 106.335 86.4001 106.664 86.8269 106.626C88.922 106.475 90.0915 106.724 90.5157 107.406C90.8152 107.89 90.8531 109.915 90.3314 111.311C90.1078 111.91 89.8815 112.095 89.8137 112.116C89.4058 112.24 89.1741 112.675 89.296 113.085C89.3963 113.423 89.7039 113.64 90.0346 113.64C90.1119 113.641 90.1864 113.63 90.2596 113.608ZM78.9629 92.4566C77.7568 90.3956 75.0885 89.0083 72.1654 88.9236C70.1598 88.8758 68.2382 89.4033 66.7732 90.442C65.2555 91.5163 64.3949 93.0443 64.3488 94.6544C64.3394 94.9783 64.5928 95.3104 64.9153 95.3104C64.9207 95.3104 64.9261 95.3104 64.9329 95.3104C65.2473 95.3104 65.5062 95.007 65.5156 94.6885C65.5495 93.4598 66.2352 92.2858 67.444 91.4302C68.2165 90.8849 69.1407 90.4858 70.1449 90.2808C69.3901 90.9013 68.8954 91.8279 68.8643 92.8858C68.8087 94.8184 70.317 96.4257 72.2332 96.4817C74.1494 96.5377 75.7471 95.0165 75.8013 93.0826C75.8284 92.1532 75.4896 91.299 74.9218 90.6553C76.254 91.1692 77.3476 92.0056 77.9615 93.0553C78.1254 93.3354 78.4818 93.427 78.7597 93.2616C79.0334 93.0976 79.1269 92.7368 78.9629 92.4566ZM111.506 90.7304C110.103 89.6097 108.221 88.9605 106.21 88.9031C103.238 88.8252 100.56 90.0197 99.2199 92.037C99.041 92.3077 99.1128 92.6726 99.3798 92.853C99.6468 93.0334 100.01 92.961 100.189 92.6917C100.972 91.5122 102.392 90.6566 104.054 90.2862C103.27 90.9067 102.756 91.858 102.723 92.9405C102.667 94.873 104.177 96.4831 106.091 96.5391C108.007 96.5951 109.605 95.0753 109.659 93.1414C109.689 92.0944 109.258 91.1459 108.554 90.483C109.385 90.7509 110.144 91.1432 110.782 91.653C111.941 92.5783 112.559 93.6197 112.524 94.8484C112.514 95.1723 112.767 95.309 113.089 95.309C113.095 95.309 113.099 95.309 113.106 95.309C113.419 95.309 113.679 95.201 113.689 94.8812C113.735 93.2726 112.96 91.8922 111.506 90.7304ZM117.723 86.853C118.298 86.1204 114.604 80.786 108.95 80.1942C104.334 79.6762 100.274 82.1937 99.9219 82.981C99.5695 83.7696 100.686 84.6047 101.471 84.3382C102.255 84.0703 104.733 81.7058 109.857 82.2798C114.98 82.8525 117.149 87.5855 117.723 86.853ZM68.0349 82.2798C73.1588 81.7058 75.636 84.0703 76.4206 84.3382C77.2053 84.606 78.3233 83.7696 77.9696 82.981C77.6173 82.1924 73.5572 79.6762 68.9415 80.1942C63.2878 80.786 59.5936 86.1204 60.1682 86.853C60.7428 87.5855 62.911 82.8525 68.0349 82.2798ZM102.524 122.487C102.524 122.487 98.8499 135.461 89.0426 135.461C79.2353 135.461 74.8337 122.243 74.8337 122.243C74.8026 121.449 76.2634 122.481 77.1999 122.12C79.3031 121.313 82.0405 120.679 84.2182 120.679C87.3649 120.679 88.3135 122.073 89.1985 122.073C90.0834 122.073 91.4426 120.802 93.3561 120.802C94.4972 120.802 97.5788 121.594 99.8202 122.484C101.342 123.088 101.853 121.81 102.524 122.487ZM100.941 123.476C99.3541 124.031 97.6777 123.398 94.2803 123.43C92.3262 123.449 90.4303 124.087 88.7892 124.059C87.3202 124.034 85.8485 123.293 84.1518 123.211C80.7721 123.05 77.9222 123.661 76.048 123.001C78.2555 125.716 79.6392 130.869 88.9342 130.869C98.3065 130.868 98.7524 126.248 100.941 123.476Z" fill="url(#paint0_radial)"/>
<g filter="url(#filter0_b)">
<circle cx="48.7471" cy="37.7471" r="28.7471" fill="white" fill-opacity="0.2"/>
<circle cx="48.7471" cy="37.7471" r="28.2471" stroke="#E4EFFF"/>
</g>
<path d="M145.84 128.285C144.433 135.558 141.074 143.261 133.22 145.109C127.133 146.541 119.165 146.133 114.246 145.658C112.97 146.706 111.656 147.684 110.297 148.566C103.817 152.775 96.4912 155 89.1077 155C81.6911 155 74.3347 152.756 67.8327 148.509C66.4961 147.638 65.2033 146.672 63.9466 145.638C59.0463 146.12 50.9471 146.561 44.7796 145.107C36.926 143.259 33.5688 135.557 32.1599 128.283C28.0357 106.971 30.3231 88.2883 34.7773 71.1356C39.2315 53.9844 46.63 35.3017 64.3399 25.9701C72.9077 21.455 81.7137 20.0735 88.9269 20C88.951 20 88.9766 20.0015 89.0022 20.0015C89.0248 20.0015 89.0504 20 89.076 20L89.0776 20.003C96.2893 20.0765 105.095 21.4595 113.662 25.9731C131.373 35.3047 138.77 53.9874 143.224 71.1386C147.677 88.2913 149.964 106.972 145.84 128.285ZM126.211 121.689C126.281 121.509 126.357 121.334 126.424 121.152C127.182 119.147 127.839 117.066 128.392 114.929C128.621 114.114 128.831 113.282 129.042 112.452C129.562 112.611 130.137 112.706 130.784 112.706C131.828 112.706 132.687 112.206 133.386 111.476C135.135 105.027 135.687 97.8194 134.13 89.9968C133.627 89.8723 133.074 89.8018 132.453 89.8018C132.384 89.8018 132.318 89.8093 132.248 89.8123C132.306 88.3303 132.342 86.8392 132.342 85.3332C132.342 84.6537 132.328 83.9802 132.318 83.3052C131.908 82.1157 131.448 80.9127 130.936 79.6992C130.252 95.3713 127.286 97.8689 122.951 101.503C127.286 96.0523 127.33 76.6331 112.456 65.392C101.747 57.2979 103.952 54.9459 100.777 50.4623C97.2672 54.9474 76.2499 57.2979 65.5423 65.392C50.6698 76.6331 50.7135 96.0523 55.0502 101.503C50.715 97.8689 47.7496 95.3713 47.064 79.6992C46.6391 80.7057 46.2593 81.7017 45.9052 82.6917C45.8856 83.5677 45.8721 84.4497 45.8721 85.3332C45.8721 86.8437 45.9082 88.3378 45.967 89.8243C45.8269 89.8168 45.6882 89.8033 45.5451 89.8033C44.9258 89.8033 44.3728 89.8738 43.868 89.9983C42.3114 97.8209 42.8644 105.028 44.6139 111.477C45.3146 112.208 46.1719 112.707 47.2162 112.707C47.944 112.707 48.5889 112.596 49.1585 112.395C49.371 113.235 49.5834 114.075 49.814 114.9C50.3745 117.074 51.0435 119.186 51.8165 121.224C51.8813 121.394 51.9522 121.559 52.017 121.727C55.9166 131.724 62.283 139.919 70.1231 145.037C75.8069 148.749 82.2637 150.845 89.1077 150.845C95.9216 150.845 102.35 148.767 108.014 145.086C115.901 139.965 122.3 131.735 126.211 121.689Z" fill="#6CA3F5" fill-opacity="0.2"/>
<g filter="url(#filter1_b)">
<circle cx="48.7471" cy="37.7471" r="28.7471" fill="white" fill-opacity="0.2"/>
<circle cx="48.7471" cy="37.7471" r="28.2471" stroke="#E4EFFF"/>
</g>
<path d="M48.6162 21.5908V38.1878H62.924" stroke="white" stroke-width="1.5" stroke-linecap="round"/>
<defs>
<filter id="filter0_b" x="16" y="5" width="65.4941" height="65.4941" filterUnits="userSpaceOnUse" color-interpolation-filters="sRGB">
<feFlood flood-opacity="0" result="BackgroundImageFix"/>
<feGaussianBlur in="BackgroundImage" stdDeviation="2"/>
<feComposite in2="SourceAlpha" operator="in" result="effect1_backgroundBlur"/>
<feBlend mode="normal" in="SourceGraphic" in2="effect1_backgroundBlur" result="shape"/>
</filter>
<filter id="filter1_b" x="16" y="5" width="65.4941" height="65.4941" filterUnits="userSpaceOnUse" color-interpolation-filters="sRGB">
<feFlood flood-opacity="0" result="BackgroundImageFix"/>
<feGaussianBlur in="BackgroundImage" stdDeviation="2"/>
<feComposite in2="SourceAlpha" operator="in" result="effect1_backgroundBlur"/>
<feBlend mode="normal" in="SourceGraphic" in2="effect1_backgroundBlur" result="shape"/>
</filter>
<radialGradient id="paint0_radial" cx="0" cy="0" r="1" gradientUnits="userSpaceOnUse" gradientTransform="translate(133.149 35.2987) rotate(125.732) scale(115.027 114.186)">
<stop stop-color="#6CA3F5"/>
<stop offset="1" stop-color="#4A82D8"/>
</radialGradient>
</defs>
</svg>
