<svg width="80" height="80" viewBox="0 0 80 80" fill="none" xmlns="http://www.w3.org/2000/svg">
<path opacity="0.2" d="M40 80C17.9086 80 0 62.0914 0 40C0 17.9086 17.9086 0 40 0C62.0914 0 80 17.9086 80 40C80 62.0914 62.0914 80 40 80Z" fill="url(#paint0_radial)"/>
<path d="M30.6033 35.6335H46.8836C47.283 35.6335 47.6072 35.3082 47.6072 34.9063C47.6072 34.5049 47.283 34.1791 46.8836 34.1791H30.6033C30.2034 34.1791 29.8798 34.5049 29.8798 34.9063C29.8798 35.3082 30.2039 35.6335 30.6033 35.6335ZM30.6033 31.5409H46.8836C47.283 31.5409 47.6072 31.2156 47.6072 30.8137C47.6072 30.4123 47.283 30.0865 46.8836 30.0865H30.6033C30.2034 30.0865 29.8798 30.4123 29.8798 30.8137C29.8798 31.2156 30.2039 31.5409 30.6033 31.5409ZM30.6033 39.3024H43.9893C44.3888 39.3024 44.7129 38.9771 44.7129 38.5752C44.7129 38.1738 44.3888 37.848 43.9893 37.848H30.6033C30.2034 37.848 29.8798 38.1738 29.8798 38.5752C29.8798 38.9771 30.2039 39.3024 30.6033 39.3024ZM39.1656 41.5169H30.6033C30.2034 41.5169 29.8798 41.8427 29.8798 42.2441C29.8798 42.6455 30.2034 42.9713 30.6033 42.9713H39.1656C39.5655 42.9713 39.8891 42.6455 39.8891 42.2441C39.8891 41.8427 39.5655 41.5169 39.1656 41.5169ZM36.7763 45.1848H30.6033C30.2034 45.1848 29.8798 45.5106 29.8798 45.912C29.8798 46.3134 30.2034 46.6392 30.6033 46.6392H36.7763C37.1762 46.6392 37.4999 46.3134 37.4999 45.912C37.4999 45.5106 37.1762 45.1848 36.7763 45.1848ZM52.9572 46.1423L47.9448 52.0785L44.7423 49.5179C44.4307 49.2677 43.9744 49.3196 43.726 49.6342C43.4771 49.9479 43.5292 50.406 43.8417 50.6557L47.5922 53.6556C47.7249 53.7622 47.8841 53.8136 48.0428 53.8136C48.2483 53.8136 48.4518 53.7259 48.5951 53.5571L54.0604 47.0833C54.3185 46.7769 54.2819 46.3183 53.9765 46.0584C53.6712 45.7981 53.2153 45.8359 52.9572 46.1423ZM51.4874 40.0499V27.6156C51.4874 27.4236 51.4122 27.2399 51.2771 27.1031L44.4833 20.2152C44.3478 20.0776 44.163 20 43.97 20H26.7236C26.3237 20 26 20.3258 26 20.7272V54.0599C26 54.4613 26.3237 54.7871 26.7236 54.7871H40.084C41.8129 57.8926 45.1147 60 48.9009 60C54.47 60 59 55.4469 59 49.85C59 45.1528 55.8052 41.2023 51.4874 40.0499ZM44.6936 22.4942L49.0273 26.8884H44.6936V22.4942ZM39.4265 53.3327H27.4471V21.4544H43.246V27.6156C43.246 28.017 43.5702 28.3427 43.9696 28.3427H50.0398V39.7688C49.665 39.7261 49.2859 39.6994 48.9009 39.6994C43.3319 39.6994 38.8009 44.2531 38.8009 49.85C38.8014 51.075 39.029 52.2448 39.4265 53.3327ZM48.9014 58.5456C44.1302 58.5456 40.2485 54.645 40.2485 49.85C40.2485 45.0549 44.1302 41.1538 48.9014 41.1538C53.6726 41.1538 57.5533 45.0549 57.5533 49.85C57.5533 54.645 53.6721 58.5456 48.9014 58.5456Z" fill="#4A82D8"/>
<defs>
<radialGradient id="paint0_radial" cx="0" cy="0" r="1" gradientUnits="userSpaceOnUse" gradientTransform="translate(40 40) rotate(180) scale(40)">
<stop stop-color="#4A82D8" stop-opacity="0"/>
<stop offset="1" stop-color="#4A82D8"/>
</radialGradient>
</defs>
</svg>
