<svg width="70" height="70" viewBox="0 0 70 70" fill="none" xmlns="http://www.w3.org/2000/svg">
<path d="M48.8223 52.638C49.4212 51.6035 49.3667 50.3513 48.7679 49.3714L46.1546 45.1248C46.1546 44.9615 46.0457 44.7981 45.8824 44.6892L38.8592 33.2017V22.7485H39.1314C40.6558 22.7485 41.8535 21.5508 41.8535 20.0264V19.7542C41.8535 18.2297 40.6558 17.032 39.1314 17.032H29.1138C27.5894 17.032 26.3916 18.2297 26.3916 19.7542V20.0264C26.3916 21.5508 27.5894 22.7485 29.1138 22.7485H29.386V33.2017L22.3628 44.6892C22.1995 44.7981 22.0906 44.9615 22.0906 45.1248L19.4773 49.3714C18.8784 50.3513 18.824 51.6035 19.4229 52.638C19.9673 53.6724 21.0562 54.3257 22.2539 54.3257H45.9912C47.189 54.3257 48.2779 53.6724 48.8223 52.638ZM30.4204 33.6372C30.4749 33.5828 30.4749 33.4739 30.4749 33.365V22.2041C30.4749 21.8774 30.2571 21.6597 29.9304 21.6597H29.1138C28.2427 21.7141 27.5349 21.0064 27.4805 20.1353C27.4805 20.0808 27.4805 20.0808 27.4805 20.0264V19.7542C27.4805 18.8286 28.1883 18.1209 29.1138 18.1209H39.1314C40.0569 18.1209 40.7647 18.8286 40.7647 19.7542V20.0264C40.8191 20.8975 40.1114 21.6052 39.2403 21.6597C39.1858 21.6597 39.1858 21.6597 39.1314 21.6597H38.3147C37.9881 21.6597 37.7703 21.8774 37.7703 22.2041V33.365C37.7703 33.4739 37.7703 33.5828 37.8247 33.6372L44.5757 44.5804H23.6694L30.4204 33.6372ZM20.4028 52.148C19.9673 51.4402 19.9673 50.6236 20.4028 49.9158L23.0161 45.6692H45.229L47.8423 49.9158C48.4412 51.0047 48.0601 52.3658 46.9712 52.9646C46.6446 53.128 46.3179 53.2369 45.9912 53.2369H22.2539C21.4917 53.2369 20.7839 52.8013 20.4028 52.148Z" fill="#4A82D8" stroke="#4A82D8" stroke-width="0.3"/>
<path d="M42.833 8.81104C42.833 6.68775 41.1453 5 39.022 5C36.8987 5 35.2109 6.68775 35.2109 8.81104C35.2109 10.9343 36.8987 12.6221 39.022 12.6221C41.1453 12.6221 42.833 10.9343 42.833 8.81104ZM36.2998 8.81104C36.2998 7.28662 37.4976 6.08887 39.022 6.08887C40.5464 6.08887 41.7441 7.28662 41.7441 8.81104C41.7441 10.3355 40.5464 11.5332 39.022 11.5332C37.4976 11.5332 36.2998 10.3355 36.2998 8.81104Z" fill="#4A82D8"/>
<circle cx="41.4724" cy="40.2793" r="8.93213" fill="white" stroke="#4A82D8" stroke-width="1.19095"/>
<path fill-rule="evenodd" clip-rule="evenodd" d="M39.9523 42.3444L45.0117 37.285L45.7816 38.0548L39.9523 43.8841L36.8452 40.777L37.615 40.0071L39.9523 42.3444Z" fill="#78A9FF"/>
</svg>
