<svg width="70" height="70" viewBox="0 0 70 70" fill="none" xmlns="http://www.w3.org/2000/svg">
<path d="M55.3409 25.1659C54.0833 25.1659 53.0598 26.1893 53.0598 27.447C53.0598 28.7046 54.0833 29.7281 55.3409 29.7281C56.5986 29.7281 57.622 28.7046 57.622 27.447C57.622 26.1893 56.5986 25.1659 55.3409 25.1659ZM55.3409 28.2073C54.922 28.2073 54.5805 27.8667 54.5805 27.447C54.5805 27.0272 54.922 26.6866 55.3409 26.6866C55.7599 26.6866 56.1013 27.0272 56.1013 27.447C56.1013 27.8667 55.7599 28.2073 55.3409 28.2073Z" fill="#4A82D8"/>
<path d="M50.5491 26.6866C50.5035 26.6417 50.4525 26.6014 50.3955 26.5695L43.1751 22.4438V18.975C44.4829 18.6351 45.4562 17.455 45.4562 16.0415C45.4562 14.3641 44.0921 13 42.4147 13C40.7373 13 39.3732 14.3641 39.3732 16.0415C39.3732 17.455 40.3465 18.6351 41.6543 18.975V22.4438L34.811 26.3543L27.9677 22.4438V18.975C29.2755 18.6351 30.2488 17.455 30.2488 16.0415C30.2488 14.3641 28.8847 13 27.2073 13C25.53 13 24.1659 14.3641 24.1659 16.0415C24.1659 17.455 25.1391 18.6351 26.447 18.975V22.4438L19.2265 26.5695C18.9893 26.7041 18.8433 26.9565 18.8433 27.2295V35.0506H16.4223C16.1075 34.1679 15.2711 33.5299 14.2811 33.5299C13.0235 33.5299 12 34.5534 12 35.811C12 37.0687 13.0235 38.0921 14.2811 38.0921C15.2711 38.0921 16.1075 37.4542 16.4223 36.5714H19.2159C19.2197 36.5737 19.2227 36.5775 19.2265 36.5797L26.447 40.7063V48.9555C26.447 49.2277 26.593 49.4801 26.8302 49.6155L34.4339 53.9602C34.551 54.0264 34.681 54.0598 34.811 54.0598C34.941 54.0598 35.0711 54.0264 35.1882 53.9595L42.7918 49.6147C42.8489 49.582 42.8998 49.5425 42.9454 49.4976H45.4562V48.7373V47.9769H43.1751V40.7063L50.3955 36.5797C50.6327 36.4444 50.7787 36.192 50.7787 35.9198V28.2073H53.0598V27.447V26.6866H50.5491ZM40.894 16.0415C40.894 15.2028 41.576 14.5207 42.4147 14.5207C43.2534 14.5207 43.9354 15.2028 43.9354 16.0415C43.9354 16.8802 43.2534 17.5622 42.4147 17.5622C41.576 17.5622 40.894 16.8802 40.894 16.0415ZM25.6866 16.0415C25.6866 15.2028 26.3687 14.5207 27.2073 14.5207C28.046 14.5207 28.7281 15.2028 28.7281 16.0415C28.7281 16.8802 28.046 17.5622 27.2073 17.5622C26.3687 17.5622 25.6866 16.8802 25.6866 16.0415ZM14.2811 36.5714C13.8621 36.5714 13.5207 36.2307 13.5207 35.811C13.5207 35.3913 13.8621 35.0506 14.2811 35.0506C14.7001 35.0506 15.0415 35.3913 15.0415 35.811C15.0415 36.2307 14.7001 36.5714 14.2811 36.5714ZM20.364 27.6705L27.2073 23.76L34.0506 27.6705V35.478L27.2073 39.3885L20.364 35.478V27.6705ZM34.811 52.4243L27.9677 48.5137V40.7063L34.811 36.7957L41.6543 40.7063V48.5137L34.811 52.4243ZM49.258 35.4787L42.4147 39.3893L35.5714 35.4787V27.6705L42.4147 23.76L49.258 27.6705V35.4787Z" fill="#4A82D8"/>
<path d="M47.7372 51.0184C48.9948 51.0184 50.0183 49.9949 50.0183 48.7373C50.0183 47.4796 48.9948 46.4562 47.7372 46.4562C46.4795 46.4562 45.4561 47.4796 45.4561 48.7373C45.4561 49.9949 46.4795 51.0184 47.7372 51.0184ZM47.7372 47.9769C48.1561 47.9769 48.4975 48.3176 48.4975 48.7373C48.4975 49.157 48.1561 49.4976 47.7372 49.4976C47.3182 49.4976 46.9768 49.157 46.9768 48.7373C46.9768 48.3176 47.3182 47.9769 47.7372 47.9769Z" fill="#4A82D8"/>
<path d="M23.7875 19.9436L18.4653 22.9848L19.2198 24.3051L24.5419 21.2639L23.7875 19.9436Z" fill="#78A9FF"/>
<path d="M50.3986 38.1927L45.0764 41.2338L45.8309 42.5541L51.153 39.513L50.3986 38.1927Z" fill="#78A9FF"/>
<path d="M24.9263 41.8939H23.4055V48.7372H24.9263V41.8939Z" fill="#78A9FF"/>
<path d="M26.8221 52.6386L26.0676 53.9589L31.3898 57L32.1442 55.6797L26.8221 52.6386Z" fill="#78A9FF"/>
</svg>
