<svg width="70" height="70" viewBox="0 0 70 70" fill="none" xmlns="http://www.w3.org/2000/svg">
<path d="M54.575 28.21C54.6084 24.8883 53.6067 21.925 51.6 19.4017C49.3734 16.605 46.175 15 42.8234 15C40.57 15 38.3684 15.7233 36.4584 17.0917C36.245 17.2433 36.0134 17.3683 35.7867 17.455C34.835 17.8183 33.96 17.6667 32.9634 16.9733C29.0384 14.2417 23.7734 14.4133 20.05 17.3933C16.9034 19.91 15.205 23.4467 15.005 27.9C14.9667 28.765 15.1467 29.6517 15.555 30.6083C16.1317 31.9667 16.7267 33.3217 17.3667 34.6517C18.7384 37.5017 19.48 40.2883 19.63 43.1717C19.7234 44.9267 19.8667 46.7633 20.0667 48.7933C20.22 50.3283 20.6367 51.7167 21.3034 52.92C21.8967 53.9933 22.8117 54.575 24.0217 54.6033C25.625 54.6033 26.9234 53.3683 27.1784 51.5967C27.7884 47.3683 29.235 43.335 31.4784 39.6133C31.6417 39.3417 31.825 39.0983 32.025 38.8883C32.7567 38.12 33.7334 37.695 34.775 37.695C36.1517 37.695 37.415 38.425 38.1517 39.6483C40.3734 43.3267 41.815 47.3633 42.4367 51.64C42.6634 53.2217 43.6917 54.345 45.1184 54.57C45.29 54.5967 45.46 54.6083 45.6267 54.6083C46.8667 54.6083 47.895 53.8733 48.45 52.59C48.8484 51.67 49.2367 50.6767 49.38 49.6367C49.6617 47.595 49.8117 45.545 49.9317 43.6317C50.125 40.5417 50.6934 38.0583 51.72 35.8117L52.225 34.7133C52.825 33.41 53.4284 32.1067 53.9717 30.7783C54.37 29.81 54.5684 28.97 54.575 28.21ZM52.74 30.2733C52.2034 31.5817 51.6084 32.87 51.0167 34.155L50.5084 35.2583C49.4134 37.6567 48.8067 40.2933 48.6017 43.5483C48.4834 45.4367 48.335 47.4583 48.06 49.455C47.94 50.3367 47.59 51.2283 47.2284 52.06C46.9634 52.6767 46.3267 53.41 45.3267 53.2517C44.4734 53.1183 43.9034 52.4617 43.7567 51.45C43.11 46.9933 41.6084 42.7917 39.295 38.9583C38.3134 37.3317 36.6234 36.3617 34.775 36.3617C33.365 36.3617 32.045 36.9333 31.06 37.9683C30.7934 38.2467 30.55 38.5683 30.335 38.9233C28.0017 42.8 26.4934 47 25.8584 51.4067C25.6967 52.52 24.96 53.2683 23.9784 53.2683C23.3167 53.2517 22.835 52.935 22.4684 52.27C21.89 51.2283 21.5284 50.0133 21.3934 48.66C21.195 46.6517 21.0534 44.8333 20.96 43.0983C20.7984 40.0367 20.0167 37.0833 18.565 34.07C17.9384 32.7617 17.3517 31.4283 16.7834 30.0867C16.455 29.3167 16.3084 28.62 16.3367 27.96C16.5217 23.85 18.0084 20.7333 20.8834 18.435C24.1534 15.815 28.7534 15.6667 32.2017 18.0667C33.5567 19.01 34.895 19.2167 36.2584 18.7017C36.5917 18.5767 36.93 18.3933 37.235 18.1767C38.92 16.9717 40.8534 16.335 42.825 16.335C45.7684 16.335 48.585 17.7567 50.5567 20.2333C52.37 22.51 53.2734 25.1917 53.2417 28.1983C53.2367 28.7767 53.0667 29.475 52.74 30.2733Z" fill="#4A82D8"/>
<path d="M39.1316 25.1166H37.3917V23.375C37.3917 23.0066 37.0916 22.7083 36.725 22.7083H32.8533C32.485 22.7083 32.1867 23.0083 32.1867 23.375V25.1166H30.445C30.0767 25.1166 29.7783 25.4166 29.7783 25.7833V29.6483C29.7783 30.0166 30.0783 30.315 30.445 30.315H32.1933V32.04C32.1933 32.4083 32.4933 32.7066 32.86 32.7066H36.715C37.0833 32.7066 37.3816 32.4066 37.3816 32.04V30.3166H39.13C39.4983 30.3166 39.7966 30.0166 39.7966 29.65V25.7833C39.7983 25.415 39.5 25.1166 39.1316 25.1166ZM38.4633 28.9816H36.715C36.3467 28.9816 36.0483 29.2816 36.0483 29.6483V31.3733H33.5267V29.6483C33.5267 29.28 33.2267 28.9816 32.86 28.9816H31.1117V26.45H32.8517C33.22 26.45 33.5183 26.15 33.5183 25.7833V24.0416H36.055V25.7833C36.055 26.1516 36.355 26.45 36.7217 26.45H38.4617V28.9816H38.4633Z" fill="#78A9FF"/>
</svg>
