<svg width="70" height="70" viewBox="0 0 70 70" fill="none" xmlns="http://www.w3.org/2000/svg">
<path d="M21.6896 22.7168C24.0089 39.2244 37.788 38.2694 43.7908 39.6337C44.1318 39.7019 44.5411 39.4972 44.6093 39.088C44.6775 38.8151 44.5411 38.4058 44.2 38.3376C42.4947 37.6555 41.1987 36.4959 40.3119 35.0634C53.8863 31.7209 49.9982 21.9664 52.9313 16.0319C53.136 15.6226 52.8631 15.0769 52.3856 15.0769C45.6325 13.3715 40.1072 16.2365 38.4019 23.74C36.1509 13.849 30.0799 10.7794 20.2572 12.4166C20.0525 12.4166 19.9161 12.4848 19.7797 12.6212C19.575 12.8258 19.5068 13.0987 19.6432 13.3715C20.3254 14.8722 21.0757 18.2829 21.6896 22.7168ZM51.3624 16.1683C48.9068 23.2625 51.7717 30.9024 39.698 33.8355C39.6297 33.6991 39.6297 33.6309 39.5615 33.4945C42.0172 31.4481 42.2901 29.0606 42.6993 28.1056H45.155C45.5643 28.1056 45.8372 27.8328 45.8372 27.4235C45.8372 27.0142 45.5643 26.7414 45.155 26.7414H43.5179C44.5411 25.4453 45.9054 24.4221 45.9054 24.4221C46.1782 24.2175 46.2464 23.74 46.0418 23.4671C45.8372 23.1943 45.3597 23.126 45.0868 23.3307C45.0186 23.3989 43.6543 24.4221 42.4947 25.8546L42.1536 24.695C42.0172 24.3539 41.6761 24.1492 41.3351 24.2175C40.994 24.3539 40.7894 24.695 40.8576 25.036L41.5397 27.2871C40.8576 28.6513 40.994 30.0838 39.1523 31.8574C37.9926 22.8532 41.8808 14.2583 51.3624 16.1683ZM37.788 30.9024C37.788 32.7441 38.4019 34.7905 39.698 36.4959C34.923 33.5627 35.1959 30.6977 33.968 28.3785L34.8548 25.1042C34.923 24.7632 34.7184 24.3539 34.3773 24.2857C34.0363 24.2175 33.627 24.4221 33.5588 24.7632L33.0131 26.8096C31.9899 25.4453 30.8984 24.5585 29.5342 23.3307C29.2613 23.0578 28.7838 23.126 28.5792 23.3989C28.3063 23.6718 28.3745 24.1492 28.6474 24.3539C29.9435 25.5135 31.1031 26.4685 32.0581 27.7646L29.3295 27.901C28.9203 27.901 28.6474 28.242 28.6474 28.5831C28.6474 28.9242 28.9885 29.2652 29.3295 29.2652C29.6024 29.2652 28.3063 29.3335 32.8084 29.1288C33.8316 31.2434 33.6952 34.2448 38.6065 37.4508C32.6038 36.6323 24.691 34.313 23.0539 22.5121C22.7128 20.1247 22.0989 16.0319 21.2121 13.6444C30.6256 11.7344 37.5151 16.2365 37.788 30.9024Z" fill="#78A9FF" stroke="white" stroke-width="0.1"/>
<path d="M47.2014 42.0212L41.4033 45.5C41.0622 44.4086 40.039 43.5901 38.8112 43.5218C33.6952 43.3854 31.5806 41.7483 31.5806 41.7483C28.9203 39.2244 25.4414 38.6787 22.5082 40.2476L16.369 43.5218C16.0279 43.7265 15.8915 44.1358 16.0961 44.4768C16.3008 44.8179 16.7101 44.9543 17.0511 44.7497L23.1903 41.4754C25.5778 40.1794 28.4428 40.6569 30.6938 42.8397C30.762 42.9079 33.1495 44.7497 38.8112 44.9543C39.5615 44.9543 40.1755 45.5682 40.1755 46.3186C40.1755 47.0007 39.6297 47.6146 38.9476 47.6829C36.4237 47.9557 31.7852 48.0921 28.852 46.2504C28.511 46.0457 28.1017 46.114 27.8971 46.455C27.6924 46.7961 27.7606 47.2054 28.1017 47.41C31.0349 49.2518 35.6052 49.3882 39.0158 49.0471C40.1072 48.9107 41.0622 48.1604 41.3351 47.1372L47.8836 43.249C49.1114 42.4986 50.6121 42.8397 51.4307 43.9993C51.5671 44.1358 51.4989 44.4086 51.3624 44.545L36.9694 53.6856C36.1509 54.1631 35.1959 54.2996 34.3773 53.8903L25.3732 49.9339C24.5546 49.5928 23.5314 49.5928 22.7811 50.1385L20.1889 51.7074C19.8479 51.9121 19.7797 52.3214 19.9843 52.6624C20.1889 53.0035 20.5982 53.0717 20.9393 52.8671L23.4632 51.2982C23.8725 51.0253 24.35 51.0253 24.7592 51.23L33.7634 55.1863C35.0595 55.732 36.4919 55.6638 37.6516 54.9135C49.316 46.6597 54.5003 45.8411 52.5903 43.1808C51.3624 41.4072 49.0432 40.9297 47.2014 42.0212Z" fill="#4A82D8" stroke="white" stroke-width="0.1"/>
</svg>
