<svg width="161" height="160" viewBox="0 0 161 160" fill="none" xmlns="http://www.w3.org/2000/svg">
<path d="M29.4939 88.5744C29.4939 90.4482 29.4939 92.3219 29.4939 94.4634C29.4939 124.444 40.6167 148 54.5202 148C55.0764 148 55.6325 148 56.1887 148C62.3062 147.197 66.7553 141.308 66.1992 135.151C65.9211 132.474 65.643 129.53 65.643 126.585C65.643 105.974 72.8729 91.7866 79.5465 91.7866C86.2202 91.7866 93.45 105.974 93.45 126.585C93.45 129.53 93.45 132.207 92.8939 135.151C92.3378 141.308 96.7869 147.197 102.904 148C103.461 148 104.017 148 104.573 148C118.476 148 129.599 124.444 129.599 94.4634C129.599 92.5896 129.599 90.7158 129.599 88.5744C129.321 81.0793 131.268 73.5841 135.439 67.1597C139.054 61.5384 141 55.3817 141 48.6896C141 47.8866 141 46.8158 141 46.0128C139.61 29.4165 125.706 15.7646 108.744 14.1585C102.626 13.6232 96.5088 14.4262 90.9474 16.8354C83.9957 19.7799 76.2097 19.7799 69.2579 16.8354C63.6966 14.6939 57.579 13.6232 51.4615 14.1585C33.3869 16.0323 19.4834 29.6841 18.0931 46.2805C17.5369 53.7756 19.4834 61.003 23.6545 67.4274C27.8255 73.5841 29.772 81.0793 29.4939 88.5744Z" fill="#6CA3F5" fill-opacity="0.2"/>
<path d="M34.8571 88.2478C34.8571 89.9759 34.8571 91.7041 34.8571 93.6792C34.8571 121.33 44.7323 143.055 57.0763 143.055C57.5701 143.055 58.0638 143.055 58.5576 143.055C63.989 142.315 67.9391 136.883 67.4453 131.205C67.1984 128.736 66.9515 126.02 66.9515 123.305C66.9515 104.295 73.3704 91.2103 79.2956 91.2103C85.2207 91.2103 91.6396 104.295 91.6396 123.305C91.6396 126.02 91.6396 128.489 91.1458 131.205C90.6521 136.883 94.6022 142.315 100.034 143.055C100.527 143.055 101.021 143.055 101.515 143.055C113.859 143.055 123.734 121.33 123.734 93.6792C123.734 91.951 123.734 90.2228 123.734 88.2478C123.487 81.3351 125.215 74.4225 128.919 68.4973C132.128 63.3129 133.856 57.6346 133.856 51.4626C133.856 50.7219 133.856 49.7344 133.856 48.9938C132.622 33.6872 120.278 21.0963 105.218 19.615C99.7866 19.1212 94.3553 19.8619 89.4177 22.0838C83.2457 24.7995 76.333 24.7995 70.161 22.0838C65.2234 20.1088 59.792 19.1212 54.3606 19.615C38.3134 21.3432 25.9694 33.9341 24.735 49.2407C24.2412 56.1533 25.9694 62.8191 29.6726 68.7442C33.3758 74.4225 35.104 81.3351 34.8571 88.2478Z" fill="url(#paint0_radial)"/>
<path d="M91.3798 123.34C91.3798 104.331 86.3726 92.2989 79.0358 91.2459C75.8448 90.7879 72.1817 96.5735 70.3254 102.174C67.6944 110.112 66.9925 119.456 66.9925 119.456C66.3755 112.049 68.0186 95.6753 71.5594 88.5954C75.2635 81.189 80.3659 75.017 87.607 73.7826C102.09 71.3137 109.827 74.6061 115.998 78.7204C122.17 82.8346 122.57 88.9232 123.474 93.7147C124.378 98.5061 122.856 112.049 119.554 122.665C115.558 135.513 108.877 143.091 101.255 143.091H99.7737C94.3424 142.35 90.3923 136.919 90.886 131.24C91.3798 128.525 91.3798 126.056 91.3798 123.34V123.34Z" fill="url(#paint1_linear)"/>
<g filter="url(#filter0_b)">
<path d="M91.3798 123.34C91.3798 104.331 86.3726 92.2989 79.0358 91.2459C75.8448 90.7879 72.1817 96.5735 70.3254 102.174C67.6944 110.112 66.9925 119.456 66.9925 119.456C66.3755 112.049 68.0186 95.6753 71.5594 88.5954C75.2635 81.189 80.3659 75.017 87.607 73.7826C102.09 71.3137 109.827 74.6061 115.998 78.7204C122.17 82.8346 122.57 88.9232 123.474 93.7147C124.378 98.5061 122.856 112.049 119.554 122.665C115.558 135.513 108.877 143.091 101.255 143.091H99.7737C94.3424 142.35 90.3923 136.919 90.886 131.24C91.3798 128.525 91.3798 126.056 91.3798 123.34V123.34Z" fill="url(#paint2_linear)" fill-opacity="0.6"/>
</g>
<g filter="url(#filter1_b)">
<path d="M112.976 27.0029L116.104 33.3398L123.097 34.3559L118.037 39.2885L119.231 46.2534L112.976 42.965L106.722 46.2534L107.916 39.2885L102.856 34.3559L109.849 33.3398L112.976 27.0029Z" fill="white"/>
</g>
<g filter="url(#filter2_b)">
<path d="M93.8217 39.7726L95.3854 42.6242L98.882 43.0814L96.3518 45.3011L96.9491 48.4353L93.8217 46.9555L90.6942 48.4353L91.2915 45.3011L88.7614 43.0814L92.258 42.6242L93.8217 39.7726Z" fill="white"/>
</g>
<g filter="url(#filter3_b)">
<path d="M112.444 49.3499L114.477 53.7857L119.023 54.497L115.733 57.9498L116.51 62.8252L112.444 60.5233L108.379 62.8252L109.155 57.9498L105.866 54.497L110.411 53.7857L112.444 49.3499Z" fill="white"/>
</g>
<defs>
<filter id="filter0_b" x="62.6087" y="68.6757" width="65.3791" height="78.6717" filterUnits="userSpaceOnUse" color-interpolation-filters="sRGB">
<feFlood flood-opacity="0" result="BackgroundImageFix"/>
<feGaussianBlur in="BackgroundImage" stdDeviation="2.12828"/>
<feComposite in2="SourceAlpha" operator="in" result="effect1_backgroundBlur"/>
<feBlend mode="normal" in="SourceGraphic" in2="effect1_backgroundBlur" result="shape"/>
</filter>
<filter id="filter1_b" x="98.5989" y="22.7464" width="28.7543" height="27.7636" filterUnits="userSpaceOnUse" color-interpolation-filters="sRGB">
<feFlood flood-opacity="0" result="BackgroundImageFix"/>
<feGaussianBlur in="BackgroundImage" stdDeviation="2.12828"/>
<feComposite in2="SourceAlpha" operator="in" result="effect1_backgroundBlur"/>
<feBlend mode="normal" in="SourceGraphic" in2="effect1_backgroundBlur" result="shape"/>
</filter>
<filter id="filter2_b" x="84.5052" y="35.516" width="18.6337" height="17.1758" filterUnits="userSpaceOnUse" color-interpolation-filters="sRGB">
<feFlood flood-opacity="0" result="BackgroundImageFix"/>
<feGaussianBlur in="BackgroundImage" stdDeviation="2.12828"/>
<feComposite in2="SourceAlpha" operator="in" result="effect1_backgroundBlur"/>
<feBlend mode="normal" in="SourceGraphic" in2="effect1_backgroundBlur" result="shape"/>
</filter>
<filter id="filter3_b" x="101.61" y="45.0933" width="21.6699" height="21.9885" filterUnits="userSpaceOnUse" color-interpolation-filters="sRGB">
<feFlood flood-opacity="0" result="BackgroundImageFix"/>
<feGaussianBlur in="BackgroundImage" stdDeviation="2.12828"/>
<feComposite in2="SourceAlpha" operator="in" result="effect1_backgroundBlur"/>
<feBlend mode="normal" in="SourceGraphic" in2="effect1_backgroundBlur" result="shape"/>
</filter>
<radialGradient id="paint0_radial" cx="0" cy="0" r="1" gradientUnits="userSpaceOnUse" gradientTransform="translate(98 40.5) rotate(117.916) scale(90.7502 118.245)">
<stop stop-color="#6CA3F5"/>
<stop offset="1" stop-color="#4A82D8"/>
</radialGradient>
<linearGradient id="paint1_linear" x1="101.369" y1="78.9669" x2="101.369" y2="143.09" gradientUnits="userSpaceOnUse">
<stop stop-color="#4279CA"/>
<stop offset="1" stop-color="#649BEE"/>
</linearGradient>
<linearGradient id="paint2_linear" x1="101.369" y1="78.9669" x2="101.369" y2="143.09" gradientUnits="userSpaceOnUse">
<stop stop-color="#4279CA"/>
<stop offset="1" stop-color="#649BEE"/>
</linearGradient>
</defs>
</svg>
