<svg width="80" height="80" viewBox="0 0 80 80" fill="none" xmlns="http://www.w3.org/2000/svg">
<path opacity="0.2" d="M40 80C17.9086 80 0 62.0914 0 40C0 17.9086 17.9086 0 40 0C62.0914 0 80 17.9086 80 40C80 62.0914 62.0914 80 40 80Z" fill="url(#paint0_radial)"/>
<path d="M63.8429 39.7025L55.7388 25.4588C55.6146 25.2546 55.4181 25.1043 55.1883 25.0378C54.9586 24.9712 54.7121 24.9932 54.4978 25.0993L50.7746 27.2191C50.5532 27.3464 50.3911 27.5559 50.3237 27.8021C50.2562 28.0482 50.289 28.311 50.4147 28.5332L51.1593 30.0332C50.6334 30.394 49.9927 30.5484 49.3598 30.4671C48.7713 30.3797 48.1904 30.2471 47.6224 30.0704C44.892 29.339 40.3374 28.0993 35.8696 30.0704C35.0154 30.426 34.2236 30.9156 33.524 31.5208C33.1145 31.5208 32.283 31.372 31.4267 31.248C30.5452 30.8948 29.7465 30.363 29.0811 29.6861L29.6023 28.7687C29.7281 28.5466 29.7608 28.2838 29.6934 28.0376C29.626 27.7915 29.4639 27.5819 29.2424 27.4547L25.5193 25.3348C25.4093 25.272 25.2878 25.2319 25.162 25.217C25.0362 25.2021 24.9087 25.2127 24.787 25.2481C24.6643 25.2783 24.5491 25.3336 24.4488 25.4104C24.3484 25.4872 24.265 25.5839 24.2038 25.6943L16.1245 39.9505C16.0616 40.0603 16.0215 40.1817 16.0066 40.3074C15.9916 40.433 16.0022 40.5604 16.0376 40.6819C16.068 40.8045 16.1233 40.9195 16.2002 41.0198C16.277 41.12 16.3738 41.2034 16.4844 41.2645L20.2076 43.3844C20.351 43.4668 20.5137 43.5096 20.6792 43.5083C20.7656 43.5204 20.8533 43.5204 20.9398 43.5083C21.0625 43.478 21.1777 43.4228 21.2781 43.346C21.3784 43.2692 21.4619 43.1725 21.5231 43.062L22.4042 41.5249C23.1351 42.4876 23.9268 43.4027 24.7746 44.2645L24.5761 44.5496C24.2864 44.9642 24.1305 45.4573 24.1293 45.9629C24.1297 46.3551 24.2233 46.7417 24.4023 47.0908C24.5814 47.4399 24.8409 47.7416 25.1594 47.9711C25.5687 48.2733 26.0652 48.4343 26.5742 48.4298H26.6734C26.636 48.6763 26.636 48.9271 26.6734 49.1736C26.7873 49.8137 27.1483 50.3835 27.6787 50.7604C28.0892 51.0601 28.585 51.2208 29.0935 51.219C29.3459 51.2199 29.597 51.1823 29.8381 51.1075C29.9073 51.4603 30.0525 51.7939 30.2637 52.0851C30.4748 52.3763 30.7469 52.6182 31.0609 52.7939C31.375 52.9696 31.7235 53.075 32.0824 53.1027C32.4413 53.1305 32.8019 53.0799 33.1393 52.9546C33.281 53.5301 33.6244 54.0358 34.1073 54.3802C34.5194 54.6755 35.015 54.8319 35.5221 54.8264H35.9441C36.2618 54.7756 36.566 54.6616 36.8389 54.4912C37.1117 54.3209 37.3476 54.0977 37.5326 53.8347V53.7603C38.9424 54.4999 40.4968 54.923 42.0873 55C42.6422 54.9942 43.1921 54.8936 43.713 54.7025C44.5974 54.4317 45.3411 53.8268 45.7856 53.0165V53.0165H46.1951C46.8901 53.021 47.5699 52.8134 48.1436 52.4215C48.808 51.9466 49.2758 51.2457 49.4591 50.4504C50.2339 50.3685 50.9504 50.0018 51.4696 49.4215C51.8577 48.9827 52.1494 48.4675 52.3259 47.9091C52.8077 47.866 53.2757 47.7263 53.7022 47.4984C54.1287 47.2705 54.5048 46.959 54.808 46.5827C55.0007 46.2872 55.1318 45.956 55.1936 45.6089C55.2554 45.2618 55.2467 44.9057 55.1679 44.562C55.105 44.2777 54.996 44.0055 54.8453 43.7562V43.7562C55.9779 43.2208 56.9781 42.4419 57.7741 41.4753L58.494 42.7149C58.6207 42.9383 58.8301 43.103 59.0772 43.1736C59.1637 43.1857 59.2514 43.1857 59.3379 43.1736C59.5025 43.1692 59.6639 43.1268 59.8095 43.0496L63.5326 40.9298C63.7562 40.8032 63.9211 40.594 63.9918 40.3472C64.0218 40.1214 63.9689 39.8924 63.8429 39.7025ZM21.8209 39.9505L20.5799 42.0455L17.3408 40.2976L25.1842 26.5497L28.4233 28.3968L21.8209 39.9505ZM27.5794 46.6199C27.3871 46.8694 27.1069 47.0365 26.7957 47.0871C26.4845 47.1378 26.1657 47.0682 25.904 46.8926C25.6488 46.7019 25.4768 46.4205 25.4237 46.1067C25.3706 45.7928 25.4403 45.4705 25.6186 45.2067L26.0653 44.562L26.6362 43.7686C26.8274 43.5103 27.1115 43.3362 27.4287 43.283C27.7458 43.2299 28.0713 43.3017 28.3364 43.4835C28.5701 43.6546 28.7365 43.902 28.8068 44.1827C28.877 44.4635 28.8468 44.7599 28.7212 45.0207V45.0207L27.5794 46.6199ZM30.2601 49.186L30.0987 49.4091C30.0246 49.5782 29.9135 49.7287 29.7737 49.8494C29.6338 49.9702 29.4688 50.0582 29.2905 50.107C29.1123 50.1559 28.9254 50.1644 28.7434 50.1319C28.5615 50.0994 28.3891 50.0267 28.2389 49.9191C28.0887 49.8115 27.9644 49.6717 27.8752 49.5101C27.7859 49.3484 27.734 49.1688 27.7231 48.9845C27.7122 48.8002 27.7427 48.6158 27.8123 48.4447C27.882 48.2737 27.9889 48.1204 28.1255 47.9959L28.5722 47.3885L29.5899 45.9629L30.9302 44.0786C31.0154 43.939 31.1274 43.8176 31.2597 43.7214C31.3921 43.6252 31.5422 43.5561 31.7013 43.518C31.8605 43.48 32.0257 43.4738 32.1873 43.4998C32.3489 43.5258 32.5037 43.5835 32.6429 43.6695C32.776 43.7603 32.8889 43.8777 32.9743 44.0142C33.0598 44.1508 33.1159 44.3035 33.1393 44.4629C33.1891 44.7804 33.1135 45.1049 32.9283 45.3678L32.4816 46L30.2601 49.186ZM33.5489 50.8967L33.251 51.3058C33.1757 51.4756 33.0632 51.6263 32.9218 51.7469C32.7803 51.8674 32.6136 51.9547 32.4338 52.0022C32.2541 52.0497 32.066 52.0563 31.8834 52.0215C31.7008 51.9866 31.5283 51.9112 31.3788 51.8009C31.2292 51.6905 31.1064 51.548 31.0194 51.3839C30.9325 51.2197 30.8835 51.0382 30.8762 50.8526C30.8689 50.667 30.9034 50.4822 30.9772 50.3117C31.051 50.1413 31.1622 49.9896 31.3026 49.8678L33.524 46.7438C33.6757 46.5709 33.8726 46.4435 34.0926 46.376C34.3126 46.3084 34.5471 46.3032 34.7698 46.3611C34.9926 46.419 35.1949 46.5376 35.354 46.7037C35.5132 46.8698 35.6229 47.0769 35.6711 47.3017C35.7022 47.4588 35.6995 47.6208 35.6632 47.7769C35.6268 47.9329 35.5576 48.0794 35.4601 48.2066L34.7154 49.2604L33.5489 50.8967ZM37.7188 51.3802L36.9369 52.4587L36.8376 52.6074L36.5274 53.0289C36.3325 53.2292 36.0756 53.3578 35.7984 53.394C35.5212 53.4302 35.2399 53.3718 35 53.2283C34.7601 53.0849 34.5758 52.8647 34.4768 52.6035C34.3779 52.3423 34.3701 52.0554 34.4548 51.7893L34.5541 51.6281L35.7331 49.9794C35.9272 49.7318 36.2083 49.5672 36.5194 49.5188C36.8304 49.4705 37.1483 49.5421 37.4085 49.719C37.6671 49.91 37.8414 50.1938 37.8947 50.5106C37.9479 50.8274 37.876 51.1525 37.694 51.4174L37.7188 51.3802ZM53.7283 45.9257C53.2542 46.415 52.6099 46.7035 51.9288 46.7314V46.7314L44.5942 42.1447C44.4559 42.0561 44.2881 42.026 44.1276 42.0609C43.967 42.0957 43.8269 42.1927 43.7379 42.3306C43.6929 42.3993 43.6622 42.4763 43.6478 42.5571C43.6335 42.6379 43.6356 42.7208 43.6542 42.8007C43.6727 42.8806 43.7073 42.956 43.7558 43.0222C43.8043 43.0884 43.8658 43.1442 43.9364 43.186L51.0849 47.6736C50.9575 48.0318 50.7591 48.3607 50.5016 48.6405C50.3146 48.8381 50.0896 48.9959 49.8401 49.1045C49.5906 49.2131 49.3217 49.2704 49.0496 49.2728L42.5713 45.6529C42.4265 45.5724 42.2555 45.5526 42.0961 45.5979C41.9367 45.6433 41.8018 45.75 41.7212 45.8947C41.6405 46.0393 41.6207 46.2101 41.6661 46.3693C41.7115 46.5286 41.8183 46.6633 41.9632 46.7438L48.1684 50.2025C48.0605 50.7036 47.7682 51.1461 47.3493 51.4422C47.0831 51.6167 46.7831 51.7335 46.4688 51.7847C46.1545 51.836 45.833 51.8206 45.525 51.7397H45.4505C45.4122 51.703 45.3706 51.6698 45.3264 51.6405L40.3622 49.1612C40.2176 49.101 40.0555 49.0977 39.9085 49.152C39.7616 49.2063 39.6406 49.314 39.5699 49.4537C39.4992 49.5934 39.484 49.7546 39.5274 49.905C39.5708 50.0554 39.6695 50.1838 39.8037 50.2645L44.557 52.657C44.2587 53.0966 43.8218 53.4238 43.3159 53.5868C41.6091 53.8952 39.8481 53.5829 38.3517 52.7066V52.7066L38.7489 52.0992C39.1255 51.5668 39.2771 50.9077 39.1708 50.2645C39.0711 49.7156 38.789 49.2164 38.3701 48.8475C37.9513 48.4786 37.4201 48.2615 36.8625 48.2314C36.9743 47.8577 36.9997 47.4635 36.9369 47.0785C36.8262 46.4404 36.4698 45.8709 35.9441 45.4918C35.4962 45.1728 34.9549 45.0114 34.4052 45.0331C34.4422 44.7949 34.4422 44.5523 34.4052 44.3141C34.3152 43.841 34.0893 43.4042 33.7549 43.0572C33.4205 42.7103 32.9922 42.4681 32.5223 42.3603C32.0524 42.2525 31.5612 42.2837 31.1088 42.4501C30.6564 42.6166 30.2623 42.9111 29.9746 43.2976L29.8629 43.4463C29.6927 43.0602 29.4176 42.7295 29.0687 42.4918C28.5365 42.1206 27.8799 41.9724 27.2396 42.079C26.5993 42.1856 26.0263 42.5385 25.6434 43.062L25.5441 43.186C24.6548 42.2737 23.8257 41.3047 23.062 40.2852L28.473 30.7894C29.2674 31.578 30.2369 32.1683 31.3026 32.5125L32.5436 32.6861C31.8967 33.5198 31.4393 34.4843 31.2033 35.5125C31.093 35.9708 31.1024 36.4498 31.2306 36.9035C31.3588 37.3571 31.6015 37.7703 31.9355 38.1034C32.2539 38.4249 32.6479 38.6615 33.0816 38.7914C33.5152 38.9214 33.9746 38.9406 34.4176 38.8472C35.3637 38.6557 36.2143 38.1433 36.8252 37.3968L38.0663 35.748L39.8162 35.2893C44.7081 37.4758 49.2332 40.4027 53.2319 43.967H53.3064C53.3424 44.0097 53.3842 44.0472 53.4305 44.0786C53.6833 44.2644 53.8563 44.539 53.9145 44.8472C53.9575 45.0302 53.9632 45.22 53.9312 45.4053C53.8992 45.5906 53.8302 45.7676 53.7283 45.9257ZM53.8897 42.8389C49.8004 39.207 45.1642 36.2409 40.1512 34.0497C40.0367 34.0249 39.9182 34.0249 39.8037 34.0497C39.7214 34.038 39.6379 34.038 39.5555 34.0497L37.6319 34.5579C37.4263 34.6168 37.2441 34.7381 37.1107 34.9051L35.8696 36.6158C35.4318 37.134 34.8335 37.4917 34.1694 37.6323C33.9257 37.6835 33.6731 37.673 33.4346 37.6015C33.1961 37.53 32.9794 37.4 32.8042 37.2232C32.619 37.0356 32.4844 36.8042 32.4128 36.5506C32.3412 36.297 32.3349 36.0295 32.3947 35.7728C32.6686 34.5703 33.3106 33.4828 34.2314 32.6613C34.899 32.069 35.6574 31.5877 36.4777 31.2356C40.5236 29.4629 44.83 30.6282 47.399 31.3224C48.0353 31.5209 48.687 31.666 49.3474 31.7563C50.2187 31.8489 51.0953 31.6388 51.8295 31.1613L57.0667 40.3596C56.2624 41.4733 55.1556 42.3337 53.8772 42.8389H53.8897ZM59.3999 41.9215L58.2333 39.8761L52.7603 30.2687L51.5813 28.1985L54.808 26.3142L62.6266 40.0744L59.3999 41.9215Z" fill="#4A82D8" stroke="#4A82D8" stroke-width="0.3"/>
<defs>
<radialGradient id="paint0_radial" cx="0" cy="0" r="1" gradientUnits="userSpaceOnUse" gradientTransform="translate(40 40) rotate(180) scale(40)">
<stop stop-color="#4A82D8" stop-opacity="0"/>
<stop offset="1" stop-color="#4A82D8"/>
</radialGradient>
</defs>
</svg>
