<svg width="80" height="80" viewBox="0 0 80 80" fill="none" xmlns="http://www.w3.org/2000/svg">
<path opacity="0.2" d="M40 80C17.9086 80 0 62.0914 0 40C0 17.9086 17.9086 0 40 0C62.0914 0 80 17.9086 80 40C80 62.0914 62.0914 80 40 80Z" fill="url(#paint0_radial)"/>
<path d="M41.2485 24.0869H27.2458V25.0919H41.2485V24.0869Z" fill="#4A82D8" stroke="#4A82D8" stroke-width="0.5"/>
<path d="M38.3676 27.0348H27.2458V28.0398H38.3676V27.0348Z" fill="#4A82D8" stroke="#4A82D8" stroke-width="0.5"/>
<path d="M44.6654 50.2833H37.8315V51.2883H44.6654V50.2833Z" fill="#4A82D8" stroke="#4A82D8" stroke-width="0.5"/>
<path d="M51.6332 52.5612H37.8315V53.5662H51.6332V52.5612Z" fill="#4A82D8" stroke="#4A82D8" stroke-width="0.5"/>
<path d="M57.8641 53.0973C58.2661 53.5662 58.8691 53.8342 59.4721 53.8342C60.008 53.8342 60.544 53.6332 60.946 53.2312C61.348 52.8293 61.616 52.2933 61.549 51.6903C61.549 51.0873 61.281 50.5513 60.879 50.2163L55.7201 45.5264C56.7251 44.1195 57.1941 42.3775 57.1271 40.6355C57.0601 39.2956 56.6581 38.0226 56.0551 36.9506V34.2037C56.0551 32.4617 54.6482 30.9878 52.9062 30.9878H45.0674V23.2159C45.0674 21.474 43.6604 20 41.9185 20H21.5509V20.067C21.4839 20.067 21.3499 20.067 21.2829 20.067C19.474 20 18 21.474 18 23.2159V24.4219H23.4939V46.3304C23.4939 48.1394 24.9678 49.5463 26.7098 49.5463H34.4816V57.3852C34.4816 59.1941 35.9556 60.6681 37.7646 60.6011H57.9981C59.6061 60.6011 60.812 59.3281 60.812 57.5862C60.812 57.3182 60.812 56.5812 60.812 56.5812V56.1122H56.0551V50.8193L57.8641 53.0973ZM54.6482 45.3254L54.3802 45.6604L60.209 50.9533C60.41 51.1543 60.544 51.4223 60.544 51.7573C60.544 52.0923 60.41 52.3603 60.209 52.5613C60.008 52.7623 59.7401 52.8963 59.4721 52.8963C59.1371 52.8963 58.8691 52.7623 58.6681 52.4943L53.6432 46.3974L53.2412 46.6654C52.0352 47.5364 50.6283 48.0054 49.1543 48.0054C45.6704 48.0054 42.5884 45.3254 42.1865 41.9085C41.9185 39.8986 42.5884 37.9556 43.9284 36.4146C45.4024 34.8067 47.4793 33.9357 49.7573 34.0697C53.2412 34.3377 55.9881 37.2186 56.1221 40.7025C56.1891 42.3775 55.6531 44.0525 54.6482 45.3254ZM23.4939 23.4169H19.005V23.2159C19.005 22.01 20.01 20.938 21.2829 20.938C22.4889 20.938 23.5609 21.943 23.5609 23.2159V23.4169H23.4939ZM24.4989 46.3304V44.6554V23.2159C24.4989 22.3449 24.1639 21.541 23.5609 20.938H41.7845C42.9904 20.938 44.0624 21.943 44.0624 23.2159V30.9878H32.5387V31.0548C32.4717 31.0548 32.3377 31.0548 32.2707 31.0548C30.4617 31.0548 29.0547 32.5287 29.0547 34.2707V46.3304C29.0547 47.5364 28.0498 48.6084 26.7768 48.6084C25.5038 48.6084 24.4989 47.6034 24.4989 46.3304ZM29.0547 48.6084C29.5907 48.0054 29.9927 47.2014 29.9927 46.3304V34.2707C29.9927 33.0647 30.9977 31.9927 32.2707 31.9927C33.5436 31.9927 34.5486 32.9977 34.5486 34.2707V48.6084H29.0547ZM59.8071 57.5862C59.8071 58.7251 59.0031 59.5961 57.9981 59.5961H40.0425C40.5785 58.9931 40.9805 58.1891 40.9805 57.3182C40.9805 57.2512 40.9805 57.1842 40.9805 57.1172H59.8071C59.8071 57.3182 59.8071 57.5192 59.8071 57.5862ZM54.9832 56.1792H40.4445L39.7745 56.2462L39.9085 56.7822C39.9755 56.9162 39.9755 57.1842 39.9755 57.3852C39.9755 58.5911 38.9705 59.6631 37.6976 59.6631C36.4916 59.6631 35.4196 58.6581 35.4196 57.3852V34.2707C35.4196 33.3997 35.0846 32.5957 34.4816 31.9927H52.7052C53.9112 31.9927 54.9832 32.9977 54.9832 34.2707V35.6776C53.6432 34.2707 51.8342 33.2657 49.7573 33.1317C47.2113 32.9307 44.7994 33.9357 43.1244 35.8116C41.5835 37.5536 40.9135 39.7646 41.1815 42.0425C41.6505 46.0624 45.0674 49.0773 49.1543 49.0773C50.6953 49.0773 52.1692 48.6084 53.4422 47.8044L54.9832 49.6803V56.1792V56.1792Z" fill="#4A82D8" stroke="#4A82D8" stroke-width="0.5"/>
<path d="M47.5464 37.5536C47.1445 37.9556 46.8765 38.5586 46.8765 39.1616H47.8814C47.8814 38.8266 48.0154 38.4916 48.2164 38.2906C48.6854 37.8216 49.4894 37.8216 49.9584 38.2906C50.1594 38.4916 50.2934 38.8266 50.2934 39.1616C50.2934 39.4966 50.1594 39.7646 49.8914 40.0995C49.8914 40.0995 49.0874 40.8365 48.7524 42.0425C48.6184 42.4445 48.5514 42.8465 48.5514 43.2485H49.5564C49.5564 42.9135 49.6234 42.6455 49.6904 42.3105C49.9584 41.3725 50.5614 40.8365 50.5614 40.8365C51.0304 40.3005 51.2984 39.7646 51.2984 39.2286C51.2984 38.6256 51.0974 38.0896 50.6284 37.6206C49.8914 36.7496 48.4174 36.7496 47.5464 37.5536Z" fill="#4A82D8" stroke="#4A82D8" stroke-width="0.5"/>
<path d="M49.6231 44.0525H48.6182V45.0575H49.6231V44.0525Z" fill="#4A82D8" stroke="#4A82D8" stroke-width="0.5"/>
<defs>
<radialGradient id="paint0_radial" cx="0" cy="0" r="1" gradientUnits="userSpaceOnUse" gradientTransform="translate(40 40) rotate(180) scale(40)">
<stop stop-color="#4A82D8" stop-opacity="0"/>
<stop offset="1" stop-color="#4A82D8"/>
</radialGradient>
</defs>
</svg>
