<svg width="609" height="906" viewBox="0 0 609 906" fill="none" xmlns="http://www.w3.org/2000/svg">
<path opacity="0.5" d="M152.085 828C97.362 828 53 783.638 53 728.915C53 674.191 97.362 629.829 152.085 629.829C206.809 629.829 251.171 674.191 251.171 728.915C251.171 783.638 206.809 828 152.085 828Z" fill="url(#paint0_radial)"/>
<path opacity="0.5" d="M404.372 384.402C488.983 384.402 557.573 315.812 557.573 231.201C557.573 146.591 488.983 78 404.372 78C319.761 78 251.171 146.591 251.171 231.201C251.171 315.812 319.761 384.402 404.372 384.402Z" fill="url(#paint1_radial)"/>
<defs>
<radialGradient id="paint0_radial" cx="0" cy="0" r="1" gradientUnits="userSpaceOnUse" gradientTransform="translate(152.085 728.915) rotate(180) scale(99.0854)">
<stop stop-color="#FF891C" stop-opacity="0"/>
<stop offset="1" stop-color="#FF891C"/>
</radialGradient>
<radialGradient id="paint1_radial" cx="0" cy="0" r="1" gradientUnits="userSpaceOnUse" gradientTransform="translate(404.372 231.201) rotate(90) scale(153.201)">
<stop stop-color="#FAAD13" stop-opacity="0"/>
<stop offset="1" stop-color="#FAAD13"/>
</radialGradient>
</defs>
</svg>
